<?xml version="1.0" encoding="UTF-8"?><svg id="Layer_1" xmlns="http://www.w3.org/2000/svg" viewBox="0 0 897.7 527.9"><path d="M457.52,253.09c26.71-38.78,21.59-131.09,19.62-229.48-.16-7.92,2.39-15.65,8.44-20.76h0s.02-2.61.02-2.61h-29.52c7.66,52.26,19.24,168.45.4,251.82l1.03,1.03Z" fill="#ba9b64"/><path d="M392.57,53.55h-38.38v2.59h0c10.72,5.44,13.73,13.72,14.4,21.86.24,2.96,1.36,27.38,1.84,35.4,4.6,63.82,30.59,206.6,102.75,206.6v-1.45c-34.72-6.16-86.16-62.79-80.6-264.99Z" fill="#ba9b64"/><path d="M553.85,160.03h36.18v2.15c-8.57,3.87-16.75,11.65-19.41,20.68-21.34,72.3-41.54,113.47-86.37,115.45,0,0-1.05-1.03-1.04-1.03,39.67-17.97,56.16-56.43,70.64-137.24Z" fill="#ba9b64"/><path d="M356.12,106.87h-33.45v2.57s0,0,0,0c7.74,3.65,13.09,11,14.19,19.49.43,3.31.84,6.37,1.09,8.01,6.12,39.55,36.92,183.01,111.15,183.05v-1.45c-60.08-5.13-87.95-144.71-92.98-211.67Z" fill="#ba9b64"/><path d="M329.71,160.2h-28.78s0,2.56,0,2.56h0c7.03,2.2,12.37,7.96,14.04,15.13,1.04,4.48,2.05,8.8,2.57,10.81,10.15,37.57,44.38,127.03,107.64,131.3v-1.46c-54.14-11.2-82.21-97.39-95.47-158.34Z" fill="#ba9b64"/><path d="M576.1,213.24c-5.01,23.53-32.75,97.55-85.64,98.22-76.78.98-59.94-235.28-49.56-311.46l-45.91.02v2.6s0,0,0,0c7.64,3.61,12.31,11.39,12.04,19.79-7.39,223.82,37.87,297.23,95.39,297.45,37.2.14,68.55-29.45,92.94-89.28,2.71-6.64,7.27-11.75,13.67-14.97h0v-2.37h-32.93Z" fill="#ba9b64"/><path d="M312.05,213.48h-22.87v2.37l2.15.55c4.51,1.15,8.15,4.44,9.82,8.77,3.76,9.73,7.92,18.41,13.31,27.74,17.61,30.5,44.22,56.96,77.32,64.81,4.32,1.14,8.74,1.85,13.18,2.28v-1.45c-4.31-.67-8.45-1.77-12.55-3.3-41.65-14.55-66.5-58.6-80.36-101.77" fill="#ba9b64"/><path d="M465.39,267.13l1.04,1.03c35.57-23.05,43.37-85.99,43.37-185.99,0-10.67,5.74-20.53,14.87-26.04h0v-2.62h-31.73c-1.28,64.09,10.46,161.79-27.54,213.61Z" fill="#ba9b64"/><path d="M474.31,282.2l1.03,1.03c43.63-13.01,56.86-73.99,67.88-151.77,1.34-9.45,9.03-17.9,17.64-22.01v-2.59h-35.9c-4.26,80.91-10.26,141.2-50.66,175.35Z" fill="#ba9b64"/><polygon points="79.79 363.06 88.74 367.53 88.74 406.36 26.18 406.36 26.17 367.53 35.12 363.06 35.12 361.7 0 361.7 0 363.06 8.95 367.53 8.95 452.18 0 456.66 0 458.02 35.12 458.02 35.12 456.67 26.18 452.16 26.18 409.66 88.74 409.66 88.74 452.18 79.79 456.66 79.79 458.02 114.99 458.02 114.99 456.66 106.04 452.18 106.04 367.53 114.99 363.06 114.99 361.71 79.79 361.7 79.79 363.06" fill="#ba9b64"/><polygon points="578.82 409.66 641.38 409.66 641.38 452.18 632.44 456.66 632.44 458.02 667.64 458.02 667.64 456.66 658.69 452.18 658.69 367.53 667.64 363.06 667.64 361.71 632.44 361.7 632.44 363.06 641.38 367.53 641.38 406.36 578.82 406.36 578.82 367.53 587.77 363.06 587.77 361.7 552.65 361.7 552.65 363.06 561.59 367.53 561.59 452.18 552.65 456.66 552.65 458.02 587.77 458.02 587.77 456.67 578.82 452.16 578.82 409.66" fill="#ba9b64"/><path d="M247.76,409.85c0-27.16-20.88-49.88-60.1-49.88s-60.1,22.72-60.1,49.88,20.88,49.88,60.1,49.88,60.1-22.72,60.1-49.88ZM187.62,456.66c-25.22,0-42.27-18.59-42.27-46.81s17.04-46.8,42.27-46.8,42.27,18.58,42.27,46.8-17.12,46.81-42.27,46.81Z" fill="#ba9b64"/><path d="M362.54,367.53s8.08-4.47,8.95-4.47v-1.36h-21.2v1.36l8.98,4.47-.04,66.33-72.16-72.16h-21.98v1.36l4.47,4.47v84.65s-8.95,4.47-8.95,4.47v1.35s21.2,0,21.2,0v-1.36l-8.95-4.47v-81.35l87.18,87.18h3.3l-.83-5.83v-84.65Z" fill="#ba9b64"/><path d="M738.11,361.7h-25.54v1.36c.44,0,8.98,4.47,8.98,4.47l-41.8,84.65-8.95,4.47v1.35h21.58v-1.35s-8.95-4.47-8.95-4.47l11.72-23.87,56.43.02,11.77,23.85-8.95,4.47v1.36h37.32v-1.36s-8.95-4.47-8.95-4.47l-44.68-90.49ZM696.85,425.02l26.54-53.76,26.54,53.76h-53.09Z" fill="#ba9b64"/><path d="M880.39,422.44v9.61c-2.05,4.8-4.82,9.01-8.16,12.53-1.85,1.91-3.89,3.65-6.08,5.14-1.09.75-2.24,1.45-3.41,2.08-.58.3-1.19.6-1.79.91-5.48,2.58-11.75,3.97-18.6,3.97-3.55,0-6.93-.36-10.13-1.09-1.05-.24-2.1-.5-3.12-.83-.69-.2-1.35-.42-2.01-.66-1.99-.73-3.91-1.59-5.7-2.6-1.21-.67-2.36-1.41-3.49-2.2-1.11-.81-2.18-1.65-3.2-2.56-9.21-8.18-14.59-21.01-14.59-36.89,0-14.97,4.8-27.24,13.1-35.46,7.29-7.25,17.33-11.34,29.15-11.34,2.18,0,4.31.14,6.37.42,1.37.18,2.7.42,4.01.73,5.88,1.35,11.16,3.87,15.62,7.42.99.79,1.95,1.63,2.86,2.52.36.32.71.68,1.03,1.03,3.36,3.51,6.11,7.7,8.16,12.49v9.63l.97.97,14.14-14.14,2.2-2.2c-8.44-9.75-23.49-19.4-46.08-21.48-.71-.06-1.43-.12-2.18-.18-.73-.06-1.47-.1-2.22-.14s-1.49-.06-2.26-.08c-.85-.02-1.71-.04-2.58-.04-39.21,0-60.08,22.71-60.08,49.87s20.87,49.89,60.08,49.89c.87,0,1.73-.02,2.58-.04.77-.02,1.51-.04,2.26-.08.75-.04,1.49-.08,2.22-.14.73-.04,1.47-.1,2.18-.18,22.59-2.07,37.64-11.73,46.08-21.48l-16.34-16.34-.97.97Z" fill="#ba9b64"/><path d="M496.9,456.66v-42.33h-26.25v1.36l8.95,3.12v13.25c-6.56,15.36-20.31,24.61-38.04,24.61-25.23,0-42.25-18.6-42.25-46.81s17.03-46.8,42.25-46.8c17.74,0,31.48,9.24,38.04,24.59v9.63l.96.96,16.34-16.34c-9.55-11.03-27.52-21.92-55.3-21.92-39.21,0-60.08,22.71-60.08,49.89s20.87,49.87,60.08,49.87c21.83,0,38.21-7.03,48.34-17.95l4.49,14.88h2.47Z" fill="#ba9b64"/><path d="M204.26,506.35c-1.24-.5-2.61-.74-4.12-.74h-11.27v21.97h3.19v-8.82h8.08c1.51,0,2.88-.26,4.12-.77,1.24-.51,2.22-1.27,2.95-2.26.73-.99,1.09-2.17,1.09-3.53s-.36-2.63-1.09-3.62c-.73-.99-1.71-1.73-2.95-2.23ZM204.33,514.62c-.49.62-1.14,1.07-1.93,1.35-.79.28-1.72.42-2.78.42h-7.56v-8.4h7.86c1.01.04,1.89.2,2.63.47.74.28,1.35.72,1.82,1.34.47.61.7,1.42.7,2.41s-.25,1.8-.74,2.42Z" fill="#ba9b64"/><path d="M233.66,506.78v7.97h-13.94v-9.15h-3.19v21.97h3.19v-10.45h13.94v10.45h3.19v-21.97h-3.19v1.17Z" fill="#ba9b64"/><path d="M263.03,506.78v12.96c0,1.03-.28,1.99-.85,2.87-.57.88-1.4,1.59-2.48,2.12-1.09.54-2.36.8-3.82.8s-2.73-.27-3.8-.8c-1.08-.54-1.9-1.24-2.47-2.12-.57-.88-.85-1.84-.85-2.87v-14.13h-3.19v13.99c0,1.54.45,2.95,1.33,4.22.89,1.27,2.12,2.27,3.69,3,1.57.73,3.33,1.1,5.28,1.1s3.72-.37,5.3-1.1,2.82-1.73,3.71-3c.89-1.27,1.33-2.67,1.33-4.22v-13.99h-3.19v1.17Z" fill="#ba9b64"/><path d="M303.33,523.48l-10.12-17.88h-4.75v21.97h3.19v-18.23l10.34,18.23h2.67l10.34-18.23v18.23h3.19v-21.97h-4.75l-10.12,17.88Z" fill="#ba9b64"/><path d="M343.69,506.76c-.21.26-.54.65-.98,1.19l-6.19,7.54-5.93-7.22c-.49-.59-.87-1.03-1.11-1.32-.25-.29-.61-.74-1.08-1.35h-3.74c.45.57.78,1,1.02,1.28.23.28.59.71,1.06,1.31l8.16,10.04v9.35h3.19v-9.38l8.31-10.16c.45-.54.78-.94,1-1.2.22-.27.54-.68.96-1.23h-3.71c-.42.51-.74.9-.95,1.16Z" fill="#ba9b64"/><path d="M385.49,506.78v7.97h-13.94v-9.15h-3.19v21.97h3.19v-10.45h13.94v10.45h3.19v-21.97h-3.19v1.17Z" fill="#ba9b64"/><path d="M414.85,506.78v12.96c0,1.03-.28,1.99-.85,2.87-.57.88-1.4,1.59-2.48,2.12-1.09.54-2.36.8-3.82.8s-2.73-.27-3.8-.8c-1.08-.54-1.9-1.24-2.47-2.12-.57-.88-.85-1.84-.85-2.87v-14.13h-3.19v13.99c0,1.54.45,2.95,1.33,4.22.89,1.27,2.12,2.27,3.69,3,1.57.73,3.33,1.1,5.28,1.1s3.72-.37,5.3-1.1c1.58-.73,2.82-1.73,3.71-3,.89-1.27,1.33-2.67,1.33-4.22v-13.99h-3.19v1.17Z" fill="#ba9b64"/><path d="M445.03,506.78v17l-14.13-18.17h-4.15v21.97h3.19v-18.17l14.09,18.17h4.19v-21.97h-3.19v1.17Z" fill="#ba9b64"/><path d="M464.15,508.78c1.64-.75,3.6-1.13,5.88-1.13.87,0,1.77.08,2.73.24.95.16,1.93.42,2.95.79,1.01.37,1.98.85,2.89,1.44l.04-2.94c-1.41-.65-2.87-1.13-4.38-1.44-1.51-.31-2.92-.46-4.23-.46-2.84,0-5.33.51-7.47,1.52-2.14,1.01-3.78,2.37-4.91,4.1-1.14,1.72-1.71,3.6-1.71,5.64s.56,4.01,1.69,5.74c1.12,1.73,2.76,3.1,4.91,4.11,2.15,1.01,4.65,1.52,7.49,1.52,1.36,0,2.78-.15,4.26-.45,1.48-.3,2.93-.78,4.34-1.45v-8.82h-3.23v7.33c-.94.38-1.84.64-2.71.79-.87.15-1.76.22-2.67.22-2.27,0-4.23-.38-5.88-1.13-1.64-.75-2.89-1.81-3.74-3.18-.85-1.37-1.28-2.93-1.28-4.69s.43-3.26,1.28-4.6c.85-1.35,2.1-2.4,3.74-3.15Z" fill="#ba9b64"/><rect x="496.9" y="516.29" width="13.35" height="2.38" fill="#ba9b64"/><path d="M545.53,506.78v17l-14.13-18.17h-4.15v21.97h3.19v-18.17l14.09,18.17h4.19v-21.97h-3.19v1.17Z" fill="#ba9b64"/><path d="M575.61,506.79c-1.92-1.01-4.1-1.52-6.54-1.52s-4.66.51-6.57,1.52c-1.92,1.01-3.41,2.37-4.47,4.08-1.06,1.71-1.6,3.62-1.6,5.72s.53,4.04,1.6,5.76c1.06,1.72,2.55,3.08,4.47,4.07,1.92.99,4.1,1.49,6.54,1.49s4.63-.5,6.55-1.49c1.93-.99,3.42-2.34,4.47-4.07,1.05-1.72,1.58-3.64,1.58-5.76s-.53-4-1.58-5.72c-1.05-1.71-2.54-3.07-4.45-4.08ZM577.57,521.27c-.78,1.36-1.9,2.41-3.34,3.15-1.45.74-3.18,1.11-5.19,1.11s-3.73-.38-5.19-1.13c-1.47-.75-2.59-1.8-3.36-3.15-.77-1.35-1.16-2.9-1.16-4.66s.39-3.32,1.18-4.66c.78-1.35,1.9-2.4,3.36-3.15,1.46-.75,3.19-1.13,5.21-1.13s3.71.38,5.16,1.13c1.45.75,2.56,1.8,3.34,3.15.78,1.35,1.18,2.9,1.18,4.66s-.39,3.32-1.18,4.68Z" fill="#ba9b64"/><path d="M605.13,523.48l-10.12-17.88h-4.75v21.97h3.19v-18.23l10.34,18.23h2.67l10.34-18.23v18.23h3.19v-21.97h-4.75l-10.12,17.88Z" fill="#ba9b64"/><path d="M646.17,506.78v12.96c0,1.03-.28,1.99-.85,2.87-.57.88-1.4,1.59-2.48,2.12-1.09.54-2.36.8-3.82.8s-2.73-.27-3.8-.8c-1.08-.54-1.9-1.24-2.47-2.12-.57-.88-.85-1.84-.85-2.87v-14.13h-3.19v13.99c0,1.54.45,2.95,1.33,4.22.89,1.27,2.12,2.27,3.69,3,1.57.73,3.33,1.1,5.28,1.1s3.72-.37,5.3-1.1c1.58-.73,2.82-1.73,3.71-3,.89-1.27,1.33-2.67,1.33-4.22v-13.99h-3.19v1.17Z" fill="#ba9b64"/><path d="M676.87,526.06c-.17-.2-.41-.5-.7-.89l-3.45-4.28c-.27-.38-.57-.75-.89-1.13-.4-.5-.79-.99-1.19-1.49h.22c1.29-.14,2.42-.46,3.41-.98.99-.51,1.77-1.21,2.34-2.09.57-.88.85-1.94.85-3.16,0-1.35-.34-2.5-1.02-3.48-.68-.97-1.64-1.71-2.89-2.21-1.25-.5-2.65-.76-4.21-.76h-11.27v21.97h3.19v-9.12h5.82c.54.65,1.07,1.3,1.58,1.94.51.64,1.16,1.45,1.95,2.42.72.89,1.33,1.68,1.85,2.36.52.68,1.14,1.48,1.85,2.39h3.71l.04-.06c-.3-.36-.53-.64-.69-.85-.16-.21-.33-.41-.5-.61ZM668.79,516.08h-7.53v-8.11h7.75c1.04.02,1.95.16,2.73.42.78.26,1.4.68,1.85,1.28.46.59.69,1.39.69,2.38s-.25,1.78-.74,2.37c-.49.59-1.15,1.02-1.97,1.28-.82.26-1.74.38-2.78.38Z" fill="#ba9b64"/><path d="M707.6,524.88l-8.94-19.27h-4.3l-8.9,19.33c-.27.58-.48,1.01-.61,1.31-.14.3-.34.74-.61,1.34h3.37c.3-.59.51-1.04.63-1.34.12-.3.33-.75.63-1.36l1.8-3.86h11.73l1.93,4.13c.25.54.43.94.56,1.2.12.27.32.68.59,1.23h3.34c-.25-.59-.44-1.04-.59-1.34-.15-.3-.36-.75-.63-1.36ZM691.65,518.94l4.89-10.49,4.9,10.49h-9.79Z" fill="#ba9b64"/></svg>